<?xml version="1.0" encoding="UTF-8"?><svg id="Layer_1" xmlns="http://www.w3.org/2000/svg" width="13.944in" height="2.6833in" viewBox="0 0 1003.9693 193.2001"><path d="M127.1665,11.9C102.5665-1,80.2665-3,62.3665,7.6,44.5665,18.2,5.5665,41.8,2.4665,43.8c-1.0996,.5325-1.957,1.4614-2.4,2.6-.3,1.2,.4,2.6,2.4,4.1,0,0,28,20,34.3,23.9s12.1,4.3,18.1,.2c3.9-2.6,24.8-17.4,35.2-24.4s32.1-22.2,53.5-17.1c15.7,3.7,34.6,12.6,34.6,12.6,0,0-9.9-12.2999-51-33.7999Z"/><path d="M180.0665,93.3s-28-20-34.3-23.9-12.1-4.3-18.1-.2c-3.9,2.6-24.8,17.4-35.2,24.4s-32.1,22.2-53.5,17.1c-15.7-3.7-34.6-12.6-34.6-12.6,.9,.6,1.8,1.2,2.6,1.7-.9-.6-1.8-1.1-2.6-1.7,0,0,9.8,12.4,50.9,33.9,24.6,12.9,46.9,14.9,64.8,4.3,17.8-10.6,56.8-34.2,59.9-36.2,1.0996-.5325,1.957-1.4614,2.4-2.6h0c.4-1.3-.3-2.7001-2.3-4.2001Z"/><path d="M265.4665,79.1c0,39.9-20.9,60.1-42.5,68.5l-10.3-14.4c20-7.7,32.5-22.4,32.5-54.5v-28.6c0-3-.7-39.2-.9-43.5h22.3c-.5,3.2-1.2,21.9-1.2,43.9v28.6h.1Z"/><path d="M319.8665,49.9c0,29.7,1.1,73.1,36.2,73s36.8-52.8,36.8-81.6c0,0-.9-29.7-1.1-36.6h19.6c0,4.1,.2,39.2,.2,39.2,0,49-11.2,93.9-58.2,93.9s-52.3-46.8-52.3-94.3c0,0,.2-31.7,.2-36h19.4c-.2,4.7-.8,42.4-.8,42.4Z"/><path d="M441.7665,135.5c.9-13.8,4.8-116.6,5.4-135.5h1.1c5.7,5.9,76.4,93.2,82.5,98.9-.1-5.2-.8-87.7-.7-93.7l19.2,.6c-.7,11-3.3,86-3.5,132.1h-.9c-5.7-4.9-81-95.7-83.4-98.2h-.4c.5,3.4,.2,90.9,.5,96.9l-19.8-1.1Z"/><path d="M606.7665,79.4c0,18.3,.7,51,.9,55.3h-20.2c.4-8,.6-50.8,.6-55.6v-19.8c0-3.2-.6-48.4-1.1-52.7h20.9c-.4,3.2-1.1,31-1.1,53v19.8h0Z"/><path d="M646.5665,134.7c.4-8,.9-51.9,.9-65v-20c0-4.3-.5-40.3-.5-43.1,8.5,0,28.5,.2,41.3,2.1,27.2,4.1,44,15.9,44,35.3,0,26.3-27.6,46.3-65.6,52.8v10.3c0,3.7,0,23.7,.2,27.5h-20.3v.1Zm20.1-52.1c24.1-4.5,45-15.3,45-36.4,0-6.7-5.5-24.8-45-25.2v61.6Z"/><path d="M837.0665,136.1c-6.6,0-69.6-1.9-73.5-1.9,.6-9.7,.6-48.3,.6-52.7v-24.3c0-3-.4-46.7-.6-50.1,4.8,0,59.7-2.8,69.5-3.4l.9,15.5c-8.5,0-47.5,.9-50.8,.9v44.3c3.7,0,32.2-.9,44.2-1.9l.7,15.7c-3.3,0-15.8-.2-25-.4-9,0-17.7-.2-19.9-.2v43c4.8,0,34.6,.4,53.2-.6l.7,16.1Z"/><path d="M889.6665,78.7c0,6.9,.6,53.2,1.1,56h-20.2c.7-4.3,.4-62.4,.4-66.3v-14.9c0-5.6-.4-43.5-1.1-46.9,9.3,0,27.3-.4,43.7,1.5,25.8,3,40.9,13.6,40.9,29.5,0,15.1-11.6,28-27.8,37.5,5,6.7,50.1,46.7,55.7,52.1l-14.9,13.1c-2.1-2.6-57-58.9-62.9-66.7,9.7-5,29.3-14.9,29.3-33.2,0-8.6-7.7-19.6-44.3-19.8v58.1h.1Z"/><path d="M974.7665,23.9c-.1561-8.0176,6.2169-14.6438,14.2346-14.8,.1885-.0037,.377-.0037,.5654,0,8.4,0,14.4,6,14.4,14.4,.1561,8.0176-6.2168,14.6438-14.2345,14.8-.1885,.0037-.3771,.0037-.5656,0-7.8164,.1365-14.2635-6.0893-14.4-13.9057-.0029-.1647-.0029-.3295,0-.4943Zm26.4-.3c0-6.8-5.1-12.4-11.5-12.4-7,0-12,5.4-12,12.4,0,6.8,5.2,12.5,11.6,12.5,7.0001,.1,11.9-5.5,11.9-12.5h0Zm-14.1,.5c0,.8,.1,5.8,.1,6.1h-2.6c.1-.5,0-6.8,0-7.2v-1.6c0-.6,0-4.7-.1-5.1,2.038-.0522,4.077,.048,6.1,.3,2.1,.3,3.7,1.3,3.7,3s-1.1,3-2.8,4c.5,.7,4.1,4.8,4.6,5.4l-2.2,1.6c-.2-.3-4.7-6.2-5.3-7,1-.5,3-1.8,3-3.4,0-.9-.6-2.2-4.6-2.1v6h.1001Z"/><path d="M587.1665,189.4l1.6-3.3c2.7308,2.2424,6.1667,3.4468,9.7,3.4,5.1,0,7.3-2,7.3-4.5,0-7.2-17.9-2.7-17.9-13.6,0-4.6,3.5-8.4,11.3-8.4,3.3516-.071,6.6517,.8322,9.5,2.6l-1.4,3.4c-2.4315-1.5217-5.232-2.3515-8.1-2.4-5,0-7.2,2.1-7.2,4.7,0,7.2,17.9,2.7,17.9,13.5,0,4.5-3.6,8.4-11.4,8.4-4.4999-.1-8.9-1.6-11.2999-3.8Z"/><path d="M659.9665,182.6v10.2h-4.2v-10.3l-11.7-19.2h4.5l9.4,15.5,9.5-15.5h4.2l-11.7,19.3Z"/><path d="M705.8665,189.4l1.6-3.3c2.7308,2.2424,6.1667,3.4468,9.7,3.4,5.1,0,7.3-2,7.3-4.5,0-7.2-17.9-2.7-17.9-13.6,0-4.6,3.5-8.4,11.3-8.4,3.3516-.071,6.6517,.8322,9.5,2.6l-1.4,3.4c-2.4315-1.5217-5.232-2.3515-8.1-2.4-5,0-7.2,2.1-7.2,4.7,0,7.2,17.9,2.7,17.9,13.5,0,4.5-3.6,8.4-11.4,8.4-4.4999-.1-8.9-1.6-11.2999-3.8Z"/><path d="M773.8665,166.9h-10.1v-3.7h24.4v3.7h-10.1v25.8h-4.2v-25.8h0Z"/><path d="M847.8665,189.1v3.7h-21.4v-29.5001h20.8v3.7h-16.6v9.1h14.8v3.6h-14.8v9.5001h17.2v-.1Z"/><path d="M915.6665,192.8v-21.5l-10.7,17.9h-1.9l-10.7-17.8v21.4h-4v-29.5001h3.5l12.3,20.7,12.1-20.7h3.5v29.5h-4.0999Z"/><path d="M959.5665,189.4l1.6-3.3c2.7308,2.2424,6.1667,3.4468,9.7,3.4,5.1,0,7.3-2,7.3-4.5,0-7.2-17.9-2.7-17.9-13.6,0-4.6,3.5-8.4,11.3-8.4,3.3516-.071,6.6517,.8322,9.5,2.6l-1.4,3.4c-2.4315-1.5217-5.232-2.3514-8.1-2.4-5,0-7.2,2.1-7.2,4.7,0,7.2,17.9,2.7,17.9,13.5,0,4.5-3.6,8.4-11.4,8.4-4.4999-.1-8.8999-1.6-11.2999-3.8Z"/></svg>